<svg xmlns="http://www.w3.org/2000/svg" viewBox="0 0 100 100" width="256" height="256">
  <!-- Rounded Premium Dark Backplate -->
  <rect x="2" y="2" width="96" height="96" rx="22" ry="22" fill="#1E1F22" stroke="#35373C" stroke-width="1.5"/>

  <!-- Chimney -->
  <path d="M 26 27 L 26 18 L 34 18 L 34 25" fill="none" stroke="#FFFFFF" stroke-width="5.5" stroke-linecap="round" stroke-linejoin="round"/>
  
  <!-- House Frame -->
  <path d="M 39 84 L 22 84 L 22 46 L 12 46 L 50 14 L 88 46 L 78 46 L 78 84 L 61 84" fill="none" stroke="#FFFFFF" stroke-width="5.5" stroke-linecap="round" stroke-linejoin="round"/>
  
  <!-- Water Droplet -->
  <path d="M 50 48 C 42 60 38 66 38 74 C 38 82 43.5 87 50 87 C 56.5 87 62 82 62 74 C 62 66 58 60 50 48 Z" fill="none" stroke="#FFFFFF" stroke-width="5.5" stroke-linecap="round" stroke-linejoin="round"/>
  
  <!-- Lightning Bolt -->
  <polygon points="72,18 56,41 65,41 58,64 77,36 67,36" fill="#FFFFFF" stroke="#FFFFFF" stroke-width="2" stroke-linejoin="round" stroke-linecap="round"/>
</svg>
